<?xml version="1.0" standalone="no"?>
<!DOCTYPE svg PUBLIC "-//W3C//DTD SVG 20010904//EN"
 "http://www.w3.org/TR/2001/REC-SVG-20010904/DTD/svg10.dtd">
<svg version="1.0" xmlns="http://www.w3.org/2000/svg"
 width="1024.000000pt" height="1024.000000pt" viewBox="0 0 1024.000000 1024.000000"
 preserveAspectRatio="xMidYMid meet">
<metadata>
Created by potrace 1.14, written by Peter Selinger 2001-2017
</metadata>
<g transform="translate(0.000000,1024.000000) scale(0.100000,-0.100000)"
fill="#000000" stroke="none">
<path d="M2249 9056 c-2 -2 -33 -6 -69 -9 -321 -29 -674 -165 -950 -366 -73
-53 -207 -166 -243 -205 -10 -11 -41 -45 -70 -76 -64 -70 -86 -95 -117 -140
-13 -19 -27 -37 -30 -40 -4 -3 -32 -47 -64 -99 -66 -107 -132 -238 -165 -326
-13 -33 -29 -76 -36 -95 -17 -42 -37 -119 -60 -220 -45 -202 -44 -155 -41
-2455 1 -1199 5 -2196 9 -2215 4 -19 16 -84 28 -145 41 -220 157 -505 279
-690 343 -517 851 -829 1475 -905 83 -10 5990 -7 6055 3 47 7 131 23 165 31
11 2 43 9 70 16 170 38 437 155 601 261 323 210 583 512 732 849 19 41 37 84
42 95 16 35 50 138 66 200 22 82 22 85 47 210 l22 110 0 2215 c0 2060 -1 2221
-17 2305 -34 175 -52 246 -83 335 -137 384 -359 697 -665 936 -81 64 -186 134
-199 134 -5 0 -11 4 -13 8 -6 14 -219 118 -318 155 -126 47 -265 83 -390 102
-25 4 -61 10 -80 13 -37 7 -5974 15 -5981 8z m2158 -2046 c43 -24 80 -46 83
-49 4 -6 42 -29 122 -76 10 -5 91 -55 180 -110 170 -104 224 -137 361 -220 45
-27 153 -93 240 -147 87 -54 162 -98 167 -98 5 0 10 -3 12 -8 2 -4 50 -36 108
-70 58 -35 112 -67 120 -72 82 -51 470 -288 481 -293 8 -4 34 -20 59 -37 25
-16 73 -46 108 -67 35 -21 79 -47 97 -58 18 -11 68 -42 111 -68 44 -27 88 -54
99 -60 11 -7 38 -23 60 -37 22 -14 49 -30 60 -37 11 -7 51 -31 90 -54 127 -77
213 -193 230 -309 3 -25 7 -53 9 -63 6 -41 -15 -140 -42 -200 -49 -108 -91
-141 -507 -394 -209 -128 -385 -237 -392 -242 -7 -6 -15 -11 -18 -11 -4 0 -38
-20 -76 -45 -38 -25 -74 -45 -79 -45 -6 0 -10 -4 -10 -8 0 -4 -12 -13 -27 -20
-16 -6 -71 -38 -123 -71 -52 -33 -122 -76 -155 -96 -33 -20 -125 -76 -205
-126 -80 -49 -152 -93 -160 -96 -8 -4 -17 -9 -20 -13 -3 -3 -50 -33 -104 -66
-133 -79 -155 -93 -223 -135 -443 -271 -704 -428 -732 -437 -110 -38 -244 20
-303 131 l-23 42 -2 1804 -3 1804 24 52 c47 104 132 155 248 150 45 -2 73 -12
135 -45z"/>
</g>
</svg>
